<svg width="32" height="30" viewBox="0 0 32 30" fill="none" xmlns="http://www.w3.org/2000/svg">
<path d="M30.2503 3.87939H27.0003V5.81924H30.0003V27.1575H2.00026V5.81924H5.00026V3.87939H1.75026C1.51649 3.88318 1.28579 3.9316 1.07132 4.02188C0.856857 4.11217 0.662828 4.24254 0.500319 4.40557C0.33781 4.56859 0.210004 4.76107 0.124203 4.97201C0.0384012 5.18295 -0.00371596 5.40822 0.000257051 5.63495V27.3418C-0.00371596 27.5685 0.0384012 27.7938 0.124203 28.0047C0.210004 28.2157 0.33781 28.4082 0.500319 28.5712C0.662828 28.7342 0.856857 28.8646 1.07132 28.9549C1.28579 29.0451 1.51649 29.0936 1.75026 29.0974H30.2503C30.484 29.0936 30.7147 29.0451 30.9292 28.9549C31.1437 28.8646 31.3377 28.7342 31.5002 28.5712C31.6627 28.4082 31.7905 28.2157 31.8763 28.0047C31.9621 27.7938 32.0042 27.5685 32.0003 27.3418V5.63495C32.0042 5.40822 31.9621 5.18295 31.8763 4.97201C31.7905 4.76107 31.6627 4.56859 31.5002 4.40557C31.3377 4.24254 31.1437 4.11217 30.9292 4.02188C30.7147 3.9316 30.484 3.88318 30.2503 3.87939Z" fill="#FEFAE0"/>
<path d="M6 11.6392H8V13.579H6V11.6392Z" fill="#FEFAE0"/>
<path d="M12 11.6392H14V13.579H12V11.6392Z" fill="#FEFAE0"/>
<path d="M18 11.6392H20V13.579H18V11.6392Z" fill="#FEFAE0"/>
<path d="M24 11.6392H26V13.579H24V11.6392Z" fill="#FEFAE0"/>
<path d="M6 16.4888H8V18.4286H6V16.4888Z" fill="#FEFAE0"/>
<path d="M12 16.4888H14V18.4286H12V16.4888Z" fill="#FEFAE0"/>
<path d="M18 16.4888H20V18.4286H18V16.4888Z" fill="#FEFAE0"/>
<path d="M24 16.4888H26V18.4286H24V16.4888Z" fill="#FEFAE0"/>
<path d="M6 21.3379H8V23.2777H6V21.3379Z" fill="#FEFAE0"/>
<path d="M12 21.3379H14V23.2777H12V21.3379Z" fill="#FEFAE0"/>
<path d="M18 21.3379H20V23.2777H18V21.3379Z" fill="#FEFAE0"/>
<path d="M24 21.3379H26V23.2777H24V21.3379Z" fill="#FEFAE0"/>
<path d="M8 7.75937C8.26522 7.75937 8.51957 7.65718 8.70711 7.47529C8.89464 7.29339 9 7.04669 9 6.78945V0.969921C9 0.712682 8.89464 0.465979 8.70711 0.284083C8.51957 0.102188 8.26522 0 8 0C7.73478 0 7.48043 0.102188 7.29289 0.284083C7.10536 0.465979 7 0.712682 7 0.969921V6.78945C7 7.04669 7.10536 7.29339 7.29289 7.47529C7.48043 7.65718 7.73478 7.75937 8 7.75937Z" fill="#FEFAE0"/>
<path d="M24 7.75937C24.2652 7.75937 24.5196 7.65718 24.7071 7.47529C24.8946 7.29339 25 7.04669 25 6.78945V0.969921C25 0.712682 24.8946 0.465979 24.7071 0.284083C24.5196 0.102188 24.2652 0 24 0C23.7348 0 23.4804 0.102188 23.2929 0.284083C23.1054 0.465979 23 0.712682 23 0.969921V6.78945C23 7.04669 23.1054 7.29339 23.2929 7.47529C23.4804 7.65718 23.7348 7.75937 24 7.75937Z" fill="#FEFAE0"/>
<path d="M11 3.87939H21V5.81924H11V3.87939Z" fill="#FEFAE0"/>
</svg>
